#!OML:ASF E:\emotionWalksFemale\Project 1\Capture day 1\Session 1\Female1.ASF
:FULLY-SPECIFIED
:DEGREES
2056
root 9.25771 15.4935 -34.231 153.915 -85.097 -146.5
lowerback 11.5133 2.61005 1.03316
upperback 4.12616 3.43274 1.41349
thorax -2.16275 1.6295 0.437317
lowerneck 1.99426 15.0098 11.9189
upperneck -3.36735 20.1914 -3.0608
head 0.137989 9.94659 -2.71187
rclavicle -1.05356e-014 -1.98785e-014
rhumerus -26.9778 -7.70367 -75.5054
rradius 37.8254
rwrist 13.2828
rhand -10.486 -54.9214
rfingers 7.12502
rthumb 15.5156 -804.319
lclavicle -1.05356e-014 -1.98785e-014
lhumerus -27.1313 15.0163 83.3499
lradius 37.8902
lwrist -10.9419
lhand 3.48488 -32.7025
lfingers 7.12502
lthumb 28.9238 -4.92564
rfemur -12.5543 2.22844 28.7985
rtibia 24.6121
rfoot -25.701 -42.9191
rtoes 23.7446
lfemur -21.4792 -3.57805 -20.7832
ltibia 34.852
lfoot -26.2895 19.0702
ltoes 16.7018
2057
root 9.25089 15.4976 -34.2151 150.35 -85.5922 -142.915
lowerback 11.5929 2.84371 1.25938
upperback 3.97636 3.77089 1.10877
thorax -2.32685 1.80249 -0.0566008
lowerneck 2.12387 14.6765 12.648
upperneck -3.35374 19.7728 -2.92133
head 0.148279 9.7226 -2.80412
rclavicle -3.88624e-014 1.37161e-014
rhumerus -27.5372 -8.64778 -75.5972
rradius 37.8531
rwrist 13.2635
rhand -10.504 -54.9246
rfingers 7.12502
rthumb 15.4982 -804.323
lclavicle -3.88624e-014 1.37161e-014
lhumerus -26.6039 10.7464 82.654
lradius 37.6915
lwrist -7.75939
lhand 3.57231 -32.277
lfingers 7.12502
lthumb 29.0073 -4.51452
rfemur -12.6819 1.81284 28.7109
rtibia 24.8871
rfoot -26.2664 -42.9003
rtoes 24.3483
lfemur -21.4058 -3.60374 -20.854
ltibia 34.5785
lfoot -25.8934 18.8689
ltoes 14.5433
2058
root 9.24543 15.4892 -34.1945 146.165 -85.9448 -138.699
lowerback 11.4906 2.50753 0.898027
upperback 4.04874 3.29335 1.56251
thorax -2.24735 1.56063 0.684065
lowerneck 2.23909 15.051 11.35
upperneck -3.28331 20.2709 -2.6312
head 0.0223613 9.9892 -2.52038
rclavicle 8.15017e-015 4.77083e-015
rhumerus -26.9744 -7.35204 -75.3845
rradius 37.6935
rwrist 13.3447
rhand -10.4681 -54.9522
rfingers 7.12502
rthumb 15.5329 -804.348
lclavicle 8.15017e-015 4.77083e-015
lhumerus -26.894 12.9644 82.85
lradius 37.8447
lwrist -8.46697
lhand 3.45852 -32.5633
lfingers 7.12502
lthumb 28.8986 -4.78218
rfemur -12.8564 1.54331 28.6678
rtibia 25.2342
rfoot -27.1185 -42.8134
rtoes 25.3664
lfemur -21.382 -3.50043 -20.8923
ltibia 34.3208
lfoot -25.5033 18.7571
ltoes 12.6953
2059
root 9.24112 15.4817 -34.1758 142.008 -86.3187 -134.521
lowerback 11.4761 2.54673 1.09235
upperback 4.0766 3.35997 1.33817
thorax -2.1859 1.5966 0.336088
lowerneck 2.0696 14.9335 11.6768
upperneck -3.01891 20.0923 -2.63328
head 0.157751 9.90477 -2.54381
rclavicle -2.42517e-014 3.97569e-015
rhumerus -26.9898 -8.08349 -75.5665
rradius 37.6776
rwrist 13.6326
rhand -10.6594 -55.1038
rfingers 7.12502
rthumb 15.3486 -804.514
lclavicle -2.42517e-014 3.97569e-015
lhumerus -26.1717 10.3377 82.3263
lradius 37.5509
lwrist -6.32555
lhand 3.39052 -32.3204
lfingers 7.12502
lthumb 28.8337 -4.52812
rfemur -12.9825 1.25488 28.5781
rtibia 25.5368
rfoot -27.4712 -42.8306
rtoes 25.7612
lfemur -21.3413 -3.75674 -20.9907
ltibia 34.091
lfoot -25.3318 18.9007
ltoes 10.4128
2060
root 9.23371 15.474 -34.1614 139.208 -86.6499 -131.71
lowerback 11.4672 2.9096 1.01989
upperback 3.9878 3.83303 1.09387
thorax -2.26111 1.83504 0.0600705
lowerneck 2.14856 14.6033 12.7258
upperneck -2.89887 19.6723 -2.84007
head 0.284012 9.68939 -2.77405
rclavicle -1.65985e-014 -1.59028e-015
rhumerus -27.5407 -9.27231 -75.5097
rradius 37.7897
rwrist 13.6685
rhand -10.8735 -55.3982
rfingers 7.12502
rthumb 15.1424 -804.824
lclavicle -1.65985e-014 -1.59028e-015
lhumerus -26.7004 11.581 82.6518
lradius 37.7899
lwrist -8.76241
lhand 3.29909 -32.569
lfingers 7.12502
lthumb 28.7463 -4.76194
rfemur -13.1111 1.03606 28.4164
rtibia 25.8874
rfoot -27.6418 -42.8442
rtoes 25.8331
lfemur -21.2373 -3.95832 -21.1649
ltibia 33.842
lfoot -25.2093 18.8809
ltoes 8.49293
2061
root 9.22575 15.4786 -34.1458 134.7 -86.9843 -127.253
lowerback 11.6715 3.06423 1.2731
upperback 3.90092 4.06226 0.719118
thorax -2.41616 1.95157 -0.512039
lowerneck 2.17646 14.3076 13.1234
upperneck -2.82065 19.2853 -2.64288
head 0.293201 9.48898 -2.78953
rclavicle -6.30147e-014 -1.98785e-016
rhumerus -27.9298 -10.2689 -75.7641
rradius 37.8434
rwrist 13.8714
rhand -11.0528 -55.6043
rfingers 7.12502
rthumb 14.9696 -805.043
lclavicle -6.30147e-014 -1.98785e-016
lhumerus -26.613 11.2821 82.0376
lradius 37.9058
lwrist -8.96239
lhand 3.78184 -32.928
lfingers 7.12502
lthumb 29.2074 -5.20005
rfemur -13.1957 0.687895 28.2412
rtibia 26.1978
rfoot -27.5522 -42.8741
rtoes 25.1636
lfemur -21.0627 -4.23012 -21.3272
ltibia 33.5637
lfoot -24.8006 19.1438
ltoes 6.13659
2062
root 9.21952 15.4861 -34.1305 127.781 -87.3102 -120.326
lowerback 11.7366 2.94957 1.32798
upperback 3.95201 3.91128 0.596926
thorax -2.38826 1.87704 -0.650651
lowerneck 2.01826 14.3309 12.8648
upperneck -2.71942 19.2887 -2.4412
head 0.304685 9.49352 -2.67173
rclavicle -4.55217e-014 3.18055e-015
rhumerus -27.7732 -10.31 -76.0588
rradius 37.8274
rwrist 14.1984
rhand -11.2389 -55.5864
rfingers 7.12502
rthumb 14.7904 -805.039
lclavicle -4.55217e-014 3.18055e-015
lhumerus -26.5589 11.3631 82.0483
lradius 37.8419
lwrist -8.77256
lhand 3.10302 -33.1434
lfingers 7.12502
lthumb 28.559 -5.30462
rfemur -13.3589 0.387172 28.0567
rtibia 26.5258
rfoot -27.1452 -42.9466
rtoes 24.0284
lfemur -20.9831 -4.07148 -21.4841
ltibia 33.2658
lfoot -24.0169 19.2604
ltoes 2.70752
2063
root 9.21089 15.492 -34.1155 120.788 -87.5334 -113.259
lowerback 11.6145 2.84337 0.672976
upperback 4.06516 3.70466 1.04781
thorax -2.28075 1.7694 0.217694
lowerneck 1.83054 14.5044 11.9403
upperneck -2.53744 19.4858 -2.49873
head 0.323833 9.61477 -2.5233
rclavicle -6.4605e-015 0
rhumerus -27.3777 -9.39314 -75.7959
rradius 37.8148
rwrist 14.3839
rhand -11.3848 -55.4183
rfingers 7.12502
rthumb 14.6498 -804.881
lclavicle -6.4605e-015 0
lhumerus -26.5227 11.1982 82.2593
lradius 37.928
lwrist -7.75998
lhand 2.45606 -33.0107
lfingers 7.12502
lthumb 27.9407 -5.06966
rfemur -13.5581 0.218214 27.8368
rtibia 26.9075
rfoot -28.0592 -42.2646
rtoes 26.3198
lfemur -20.8755 -4.87111 -21.5212
ltibia 32.9097
lfoot -24.053 19.7023
ltoes 1.48015
2064
root 9.20225 15.4997 -34.0988 111.779 -87.7166 -104.204
lowerback 11.5144 2.845 0.556207
upperback 4.08158 3.69555 1.1039
thorax -2.2204 1.76499 0.347462
lowerneck 2.04224 14.4426 11.7855
upperneck -2.63071 19.4341 -2.64863
head 0.256191 9.59296 -2.57332
rclavicle -7.95139e-015 9.14409e-015
rhumerus -27.3201 -9.44051 -75.8033
rradius 37.7167
rwrist 14.705
rhand -11.3278 -55.2599
rfingers 7.12502
rthumb 14.7046 -804.718
lclavicle -7.95139e-015 9.14409e-015
lhumerus -26.4464 12.1016 82.3136
lradius 37.8427
lwrist -8.45793
lhand 2.15334 -33.2559
lfingers 7.12502
lthumb 27.6512 -5.26818
rfemur -13.7215 -0.0162036 27.6255
rtibia 27.2893
rfoot -29.4622 -41.3955
rtoes 29.6931
lfemur -20.7374 -5.29066 -21.6442
ltibia 32.6041
lfoot -23.9496 19.952
ltoes -1.88591
2065
root 9.19695 15.4971 -34.0839 100.766 -87.9371 -93.1249
lowerback 11.4574 2.90972 0.402737
upperback 4.09263 3.76376 1.05032
thorax -2.18455 1.79944 0.371908
lowerneck 2.012 14.3564 12.0823
upperneck -2.55268 19.319 -2.93032
head 0.339719 9.54154 -2.6998
rclavicle 2.92213e-014 -4.77083e-015
rhumerus -27.2358 -9.73055 -75.8346
rradius 37.5722
rwrist 14.8153
rhand -11.174 -55.2451
rfingers 7.12502
rthumb 14.8528 -804.693
lclavicle 2.92213e-014 -4.77083e-015
lhumerus -26.4156 11.88 82.192
lradius 38.1611
lwrist -8.22295
lhand 2.26249 -33.7543
lfingers 7.12502
lthumb 27.7556 -5.78333
rfemur -13.966 -0.442833 27.4089
rtibia 27.7045
rfoot -28.9592 -41.4222
rtoes 29.0552
lfemur -20.7013 -4.63242 -21.9374
ltibia 32.2799
lfoot -23.0201 19.5455
ltoes -7.26338
2066
root 9.19096 15.502 -34.0684 87.3776 -88.1009 -79.6146
lowerback 11.3492 2.97594 0.18811
upperback 4.08257 3.82927 0.99846
thorax -2.14715 1.83295 0.434615
lowerneck 1.84474 14.29 12.1458
upperneck -2.32259 19.2067 -3.00454
head 0.449316 9.49483 -2.71102
rclavicle -1.0138e-014 3.57812e-015
rhumerus -27.2861 -9.70199 -75.8875
rradius 37.6579
rwrist 14.5644
rhand -11.1706 -55.3705
rfingers 7.12502
rthumb 14.8561 -804.818
lclavicle -1.0138e-014 3.57812e-015
lhumerus -26.298 12.0397 82.2555
lradius 38.2351
lwrist -8.65107
lhand 2.1608 -34.0706
lfingers 7.12502
lthumb 27.6584 -6.08402
rfemur -14.2563 -0.98081 27.1728
rtibia 28.1004
rfoot -27.9775 -41.5384
rtoes 27.7849
lfemur -20.7589 -4.19346 -22.2623
ltibia 32.0611
lfoot -22.3289 19.264
ltoes -12.5417
2067
root 9.18602 15.5059 -34.0495 71.1725 -88.0519 -63.3738
lowerback 11.3708 2.95117 0.0650169
upperback 4.06619 3.7859 1.0195
thorax -2.18505 1.8114 0.528969
lowerneck 1.75211 14.1903 11.9113
upperneck -1.99887 19.0583 -3.06014
head 0.542601 9.43739 -2.67842
rclavicle 9.83984e-015 -6.36111e-015
rhumerus -27.3673 -9.38643 -75.982
rradius 37.8031
rwrist 14.3293
rhand -11.0351 -55.4181
rfingers 7.12502
rthumb 14.9867 -804.856
lclavicle 9.83984e-015 -6.36111e-015
lhumerus -26.1112 12.1574 82.3412
lradius 38.0763
lwrist -8.95946
lhand 1.532 -33.4175
lfingers 7.12502
lthumb 27.0569 -5.33596
rfemur -14.4699 -1.53466 26.9646
rtibia 28.5752
rfoot -27.9587 -41.2842
rtoes 28.4175
lfemur -20.6571 -5.5736 -22.3648
ltibia 31.8147
lfoot -22.4102 20.0444
ltoes -13.0226
2068
root 9.18165 15.5101 -34.029 56.6142 -87.7519 -48.7886
lowerback 11.4554 2.86605 0.244177
upperback 4.04115 3.69195 0.92191
thorax -2.23827 1.7664 0.335527
lowerneck 1.74613 14.1407 11.942
upperneck -1.9544 18.9927 -3.1405
head 0.565408 9.40807 -2.70829
rclavicle -2.15681e-014 -3.97569e-016
rhumerus -27.3911 -9.44215 -76.2299
rradius 37.8161
rwrist 14.3783
rhand -10.6965 -55.3183
rfingers 7.12502
rthumb 15.3128 -804.731
lclavicle -2.15681e-014 -3.97569e-016
lhumerus -26.0725 12.4081 82.183
lradius 38.1902
lwrist -9.44703
lhand 1.08407 -32.9684
lfingers 7.12502
lthumb 26.6283 -4.82095
rfemur -14.681 -2.20521 26.8289
rtibia 29.0874
rfoot -27.8952 -40.8542
rtoes 29.5649
lfemur -20.6151 -5.19828 -22.4552
ltibia 31.5636
lfoot -22.7269 18.5346
ltoes -9.3061
2069
root 9.17756 15.5011 -34.0118 48.2362 -87.321 -40.3629
lowerback 11.5161 2.81965 0.50054
upperback 4.00971 3.65797 0.818776
thorax -2.28071 1.75154 0.0864435
lowerneck 1.7096 14.1034 11.9747
upperneck -1.92736 18.939 -3.15445
head 0.581236 9.38237 -2.71571
rclavicle 2.88238e-014 7.95139e-016
rhumerus -27.4327 -9.47356 -76.5039
rradius 37.8137
rwrist 14.3632
rhand -10.5702 -55.2211
rfingers 7.12502
rthumb 15.4345 -804.625
lclavicle 2.88238e-014 7.95139e-016
lhumerus -26.1948 12.9356 81.898
lradius 38.6353
lwrist -9.95382
lhand 1.08339 -33.3941
lfingers 7.12502
lthumb 26.6277 -5.2466
rfemur -15 -2.8252 26.8389
rtibia 29.7271
rfoot -27.1487 -40.6088
rtoes 29.855
lfemur -20.5571 -5.153 -22.4598
ltibia 31.2227
lfoot -22.4408 18.1627
ltoes -10.6764
